<?xml version="1.0" standalone="no"?>
<!DOCTYPE svg PUBLIC "-//W3C//DTD SVG 20010904//EN"
 "http://www.w3.org/TR/2001/REC-SVG-20010904/DTD/svg10.dtd">
<svg version="1.0" xmlns="http://www.w3.org/2000/svg"
 width="293.000000pt" height="293.000000pt" viewBox="0 0 293.000000 293.000000"
 preserveAspectRatio="xMidYMid meet">
<metadata>
Created by potrace 1.14, written by Peter Selinger 2001-2017
</metadata>
<g transform="translate(0.000000,293.000000) scale(0.100000,-0.100000)"
fill="#000000" stroke="none">
<path d="M863 2911 c-202 -69 -310 -298 -243 -513 11 -34 20 -65 20 -69 0 -3
-76 -6 -169 -6 -144 -1 -176 -4 -213 -21 -51 -23 -92 -62 -122 -117 -20 -38
-21 -56 -24 -308 -2 -167 1 -287 7 -318 22 -103 114 -184 218 -192 23 -2 45
-5 48 -8 2 -3 5 -228 5 -500 1 -404 3 -506 16 -559 34 -146 136 -252 274 -284
54 -13 178 -15 780 -15 393 0 738 4 766 9 150 25 273 149 303 306 6 27 10 271
11 543 0 271 2 497 5 501 2 4 25 8 50 8 82 4 155 53 197 134 22 42 23 53 25
333 2 287 2 292 -21 340 -31 64 -68 103 -123 127 -38 17 -69 20 -218 21 l-174
1 16 35 c44 102 42 244 -5 346 -65 137 -180 216 -323 221 -190 7 -353 -104
-473 -321 -16 -28 -29 -51 -31 -53 -2 -2 -15 20 -30 50 -69 138 -189 255 -309
301 -72 27 -196 31 -263 8z m190 -197 c58 -20 128 -81 174 -153 43 -66 106
-209 99 -226 -3 -9 -57 -11 -193 -10 -103 1 -196 2 -205 3 -30 3 -96 71 -114
117 -24 65 -16 148 21 203 50 76 124 98 218 66z m965 1 c122 -51 151 -235 54
-339 -15 -15 -38 -33 -52 -39 -37 -16 -420 -17 -420 -1 0 25 68 172 104 227
90 136 211 194 314 152z m-668 -594 c13 -1 15 -37 15 -273 0 -150 -3 -275 -6
-278 -4 -3 -234 -5 -512 -5 -401 0 -507 3 -520 13 -14 12 -16 49 -17 266 -1
274 -1 271 55 278 25 2 937 2 985 -1z m1254 -11 c14 -11 16 -49 16 -265 0
-222 -2 -254 -16 -266 -14 -11 -112 -14 -525 -14 -335 0 -510 3 -512 10 -3 9
-1 533 2 545 0 3 230 5 510 4 401 0 513 -3 525 -14z m-1243 -750 c1 -3 2 -259
3 -570 1 -311 5 -571 10 -578 7 -11 -52 -13 -326 -10 -303 3 -336 5 -363 21
-37 22 -72 71 -85 118 -6 20 -10 238 -10 529 l0 495 385 0 c212 0 386 -2 386
-5z m976 -490 c2 -317 -1 -510 -8 -536 -12 -47 -58 -101 -103 -119 -23 -10
-114 -14 -353 -15 l-322 -1 8 28 c4 15 7 276 6 578 0 303 2 552 6 555 4 3 177
5 386 5 l378 0 2 -495z"/>
</g>
</svg>
